<?xml version="1.0" encoding="utf-8"?>
<!-- Generator: Adobe Illustrator 17.0.0, SVG Export Plug-In . SVG Version: 6.00 Build 0)  -->
<!DOCTYPE svg PUBLIC "-//W3C//DTD SVG 1.1//EN" "http://www.w3.org/Graphics/SVG/1.1/DTD/svg11.dtd">
<svg version="1.1" id="Layer_1" xmlns="http://www.w3.org/2000/svg" xmlns:xlink="http://www.w3.org/1999/xlink" x="0px" y="0px"
	 width="612px" height="792px" viewBox="0 0 612 792" enable-background="new 0 0 612 792" xml:space="preserve">
<g>
	<path fill="#662E23" d="M157.239,297.704c6.933-6.549,15.754-9.824,26.462-9.824c14.328,0,24.805,4.391,31.431,13.171
		c3.659,4.931,5.623,9.878,5.893,14.844h-17.988c-1.144-3.814-2.613-6.693-4.405-8.637c-3.204-3.455-7.953-5.182-14.246-5.182
		c-6.409,0-11.463,2.438-15.163,7.314c-3.699,4.876-5.549,11.776-5.549,20.701c0,8.925,1.952,15.609,5.855,20.053
		c3.904,4.445,8.864,6.667,14.881,6.667c6.17,0,10.874-1.907,14.111-5.722c1.79-2.051,3.275-5.128,4.456-9.23h17.871
		c-1.541,8.673-5.479,15.726-11.815,21.16c-6.337,5.434-14.454,8.15-24.353,8.15c-12.249,0-21.879-3.67-28.889-11.012
		c-7.01-7.376-10.515-17.489-10.515-30.336C145.279,315.931,149.266,305.226,157.239,297.704z"/>
	<path fill="#662E23" d="M235.393,289.392h17.987v65.26h42.984v14.304h-60.971V289.392z"/>
	<path fill="#662E23" d="M308.452,289.392h18.28v48.866c0,5.465,0.698,9.457,2.095,11.973c2.172,4.459,6.905,6.688,14.199,6.688
		c7.254,0,11.968-2.229,14.141-6.688c1.396-2.517,2.095-6.508,2.095-11.973v-48.866h18.279v48.905
		c0,8.457-1.419,15.042-4.256,19.756c-5.286,8.636-15.372,12.954-30.259,12.954s-24.993-4.318-30.318-12.954
		c-2.838-4.714-4.256-11.3-4.256-19.756V289.392z"/>
	<path fill="#662E23" d="M459.032,297.866c2.633,3.383,3.951,7.431,3.951,12.145c0,4.858-1.33,8.763-3.987,11.713
		c-1.485,1.656-3.674,3.167-6.565,4.534c4.393,1.476,7.708,3.815,9.943,7.018c2.236,3.203,3.354,7.089,3.354,11.659
		c0,4.715-1.277,8.943-3.832,12.685c-1.626,2.483-3.658,4.571-6.097,6.261c-2.749,1.943-5.991,3.275-9.727,3.995
		c-3.736,0.72-7.79,1.079-12.164,1.079H395.12v-79.564h41.602C447.218,289.536,454.655,292.36,459.032,297.866z M412.29,303.21
		v17.543h20.923c3.737,0,6.771-0.656,9.104-1.97c2.33-1.313,3.496-3.644,3.496-6.99c0-3.706-1.541-6.153-4.623-7.341
		c-2.659-0.828-6.05-1.242-10.173-1.242H412.29z M412.29,333.924v21.214h20.9c3.731,0,6.639-0.467,8.717-1.404
		c3.771-1.727,5.658-5.038,5.658-9.932c0-4.138-1.829-6.981-5.484-8.528c-2.041-0.864-4.908-1.313-8.603-1.35H412.29z"/>
	<path fill="#662E23" d="M99.802,397.445h25.883v79.564h-16.761v-53.816c0-1.547,0.019-3.716,0.059-6.505
		c0.038-2.788,0.058-4.938,0.058-6.45L92.728,477.01H75.246l-16.197-66.771c0,1.512,0.02,3.662,0.059,6.45
		c0.038,2.789,0.059,4.958,0.059,6.505v53.816H42.405v-79.564H68.58l15.67,62.562L99.802,397.445z"/>
	<path fill="#662E23" d="M208.615,469.938c-6.503,6.189-15.905,9.284-28.208,9.284c-12.304,0-21.706-3.095-28.208-9.284
		c-8.722-7.593-13.082-18.532-13.082-32.819c0-14.574,4.36-25.513,13.082-32.818c6.502-6.189,15.904-9.284,28.208-9.284
		c12.303,0,21.705,3.095,28.208,9.284c8.682,7.306,13.023,18.244,13.023,32.818C221.639,451.406,217.297,462.346,208.615,469.938z
		 M197.373,457.848c4.185-4.858,6.278-11.768,6.278-20.729c0-8.924-2.093-15.824-6.278-20.7c-4.186-4.876-9.841-7.314-16.966-7.314
		s-12.81,2.429-17.053,7.287c-4.244,4.858-6.366,11.768-6.366,20.728c0,8.961,2.122,15.87,6.366,20.729
		c4.243,4.857,9.928,7.287,17.053,7.287S193.187,462.705,197.373,457.848z"/>
	<path fill="#662E23" d="M235.071,397.445h18.857l34.171,55.479v-55.479h16.761v79.564h-17.984l-35.044-56.454v56.454h-16.761
		V397.445z"/>
	<path fill="#662E23" d="M346.355,397.445h20.354l30.456,79.564h-19.506l-5.681-16.355h-31.701l-5.836,16.355h-18.814
		L346.355,397.445z M345.171,446.943h22.046l-10.874-31.308L345.171,446.943z"/>
	<path fill="#662E23" d="M416.338,405.758c6.934-6.549,15.754-9.824,26.463-9.824c14.328,0,24.805,4.391,31.431,13.171
		c3.659,4.931,5.623,9.878,5.894,14.845h-17.988c-1.145-3.814-2.613-6.693-4.405-8.637c-3.204-3.455-7.953-5.183-14.245-5.183
		c-6.409,0-11.464,2.438-15.163,7.314c-3.699,4.877-5.549,11.776-5.549,20.701s1.952,15.608,5.855,20.053
		c3.904,4.444,8.864,6.666,14.882,6.666c6.169,0,10.873-1.906,14.111-5.722c1.789-2.051,3.274-5.128,4.455-9.23h17.871
		c-1.541,8.673-5.479,15.727-11.815,21.16s-14.453,8.15-24.353,8.15c-12.248,0-21.878-3.67-28.889-11.012
		c-7.01-7.376-10.515-17.489-10.515-30.336C404.378,423.985,408.364,413.279,416.338,405.758z"/>
	<path fill="#662E23" d="M560.777,469.938c-6.503,6.189-15.905,9.284-28.208,9.284c-12.304,0-21.706-3.095-28.208-9.284
		c-8.722-7.593-13.082-18.532-13.082-32.819c0-14.574,4.36-25.513,13.082-32.818c6.502-6.189,15.904-9.284,28.208-9.284
		c12.303,0,21.705,3.095,28.208,9.284c8.682,7.306,13.023,18.244,13.023,32.818C573.801,451.406,569.459,462.346,560.777,469.938z
		 M549.535,457.848c4.185-4.858,6.278-11.768,6.278-20.729c0-8.924-2.094-15.824-6.278-20.7c-4.186-4.876-9.841-7.314-16.966-7.314
		s-12.81,2.429-17.054,7.287s-6.365,11.768-6.365,20.728c0,8.961,2.121,15.87,6.365,20.729c4.244,4.857,9.929,7.287,17.054,7.287
		S545.35,462.705,549.535,457.848z"/>
</g>
</svg>
