<?xml version="1.0" encoding="utf-8"?>
<!-- Generator: Adobe Illustrator 17.0.0, SVG Export Plug-In . SVG Version: 6.00 Build 0)  -->
<!DOCTYPE svg PUBLIC "-//W3C//DTD SVG 1.1//EN" "http://www.w3.org/Graphics/SVG/1.1/DTD/svg11.dtd">
<svg version="1.1" id="Layer_1" xmlns="http://www.w3.org/2000/svg" xmlns:xlink="http://www.w3.org/1999/xlink" x="0px" y="0px"
	 width="572.88px" height="572.88px" viewBox="0 0 572.88 572.88" enable-background="new 0 0 572.88 572.88" xml:space="preserve">
<g id="App_1_" enable-background="new    ">
	<g id="App">
		<g>
			<path d="M406.482,74.6H166.399c-50.699,0-91.797,41.1-91.797,91.797v240.085c0,50.699,41.098,91.797,91.797,91.797h240.085
				c50.699,0,91.797-41.098,91.797-91.797V166.398C498.28,115.7,457.181,74.6,406.482,74.6z"/>
		</g>
	</g>
</g>
<g id="App_copy_1_" enable-background="new    ">
	<g id="App_copy">
		<g>
			<path fill="#FFFFFF" d="M400.487,85.782H172.573c-48.129,0-87.143,38.912-87.143,86.913v227.311
				c0,48.001,39.015,86.913,87.143,86.913h227.914c48.129,0,87.144-38.912,87.144-86.913v-227.31
				C487.63,124.696,448.614,85.782,400.487,85.782z"/>
		</g>
	</g>
</g>
<text transform="matrix(1.2975 0 0 1 179.1719 270.8482)" font-family="'Helvetica-Bold'" font-size="59.0143">CLUB</text>
<text transform="matrix(1.2975 0 0 1 111.1065 342.0435)" font-family="'Helvetica-Bold'" font-size="59.0143">MONACO</text>
</svg>
