<?xml version="1.0" encoding="utf-8"?>
<!-- Generator: Adobe Illustrator 17.0.0, SVG Export Plug-In . SVG Version: 6.00 Build 0)  -->
<!DOCTYPE svg PUBLIC "-//W3C//DTD SVG 1.1//EN" "http://www.w3.org/Graphics/SVG/1.1/DTD/svg11.dtd">
<svg version="1.1" id="Layer_1" xmlns="http://www.w3.org/2000/svg" xmlns:xlink="http://www.w3.org/1999/xlink" x="0px" y="0px"
	 width="612px" height="792px" viewBox="0 0 612 792" enable-background="new 0 0 612 792" xml:space="preserve">
<image display="none" overflow="visible" width="1300" height="1390" xlink:href="source.jpg"  transform="matrix(2.2506 0 0 2.2506 -1170.7823 -2043.8861)">
</image>
<path fill="none" stroke="#672F24" stroke-width="13" stroke-miterlimit="10" d="M173.197,429.129V313.921
	c0,0,1.469-50.078,42.346-74.96c0,0,79.888-35.545,181.282,0c0,0,39.016,3.037,44.432,74.96v115.208l41.902-14.111
	c0,0,20.436-11.814,23.101,14.111c0,0,4.353,24.148-8.041,27.702c0,0-35.496,24.878-119.015,40.871
	c0,0-126.168,19.724-225.68-22.568c0,0-47.091-15.637-47.091-37.85c0,0,0.763-34.759,29.258-22.266L173.197,429.129z"/>
</svg>
