<?xml version="1.0" encoding="utf-8"?>
<!-- Generator: Adobe Illustrator 17.0.0, SVG Export Plug-In . SVG Version: 6.00 Build 0)  -->
<!DOCTYPE svg PUBLIC "-//W3C//DTD SVG 1.1//EN" "http://www.w3.org/Graphics/SVG/1.1/DTD/svg11.dtd">
<svg version="1.1" id="Layer_1" xmlns="http://www.w3.org/2000/svg" xmlns:xlink="http://www.w3.org/1999/xlink" x="0px" y="0px"
	 width="612px" height="792px" viewBox="0 0 612 792" enable-background="new 0 0 612 792" xml:space="preserve">
<image display="none" overflow="visible" width="1300" height="1390" xlink:href="source.jpg"  transform="matrix(1.3645 0 0 1.3645 -1181.3358 -1071.1156)">
</image>
<path display="none" fill="none" stroke="#672F24" stroke-width="13" stroke-miterlimit="10" d="M173.197,429.129V313.921
	c0,0,1.469-50.078,42.346-74.96c0,0,79.888-35.545,181.282,0c0,0,39.016,3.037,44.432,74.96v115.208l41.902-14.111
	c0,0,20.436-11.814,23.101,14.111c0,0,4.353,24.148-8.041,27.702c0,0-35.496,24.878-119.015,40.871
	c0,0-126.168,19.724-225.68-22.568c0,0-47.091-15.637-47.091-37.85c0,0,0.763-34.759,29.258-22.266L173.197,429.129z"/>
<path fill="none" stroke="#672F24" stroke-width="13" stroke-miterlimit="10" d="M81,293c0,0-10,21.333,0,35.333
	c0,0,13.333,10,14.667,24l11.333,48c0,0,3.333,25.333,24,36c0,0,56.667,33.333,107.333-5.333c0,0,18-9.333,24-35l14-34.333
	c0,0,18.667-48,38.667,0L327.667,396c0,0,11.333,27,25.333,35.667c0,0,64.667,45.333,122.667-8c0,0,10.667-18.667,12.667-37.333
	L497,349c0,0,4-14.667,16-22c0,0,6-14.667-3.333-34c0,0-50.667-0.667-60.667-4c0,0-40.546-11.333-153.273,24.667
	c0,0-88.06-37.333-165.394-23.333C130.333,290.333,82.806,288.27,81,293z"/>
</svg>
