<?xml version="1.0" encoding="utf-8"?>
<!-- Generator: Adobe Illustrator 17.0.0, SVG Export Plug-In . SVG Version: 6.00 Build 0)  -->
<!DOCTYPE svg PUBLIC "-//W3C//DTD SVG 1.1//EN" "http://www.w3.org/Graphics/SVG/1.1/DTD/svg11.dtd">
<svg version="1.1" id="Layer_1" xmlns="http://www.w3.org/2000/svg" xmlns:xlink="http://www.w3.org/1999/xlink" x="0px" y="0px"
	 width="612px" height="792px" viewBox="0 0 612 792" enable-background="new 0 0 612 792" xml:space="preserve">
<path d="M571,503L325,358.33v-30.66c0,0,6.67-8.67-19-28c0,0-23.67-4.67-27-26c0,0-8-39.34,37.33-38c0,0,24,2.66,24.67,29.33
	c0,0,8,30,30,14c0,0,10.67-6,6-31.33c0,0-10-50.4-67.33-50.4c0,0-48.67-2.94-67.34,55.06c0,0-16,48.67,43.34,83.34V359l-238,140.67
	c0,0-59.34,64.12,22,95.06H541C541,594.73,616.33,578.33,571,503z M533,554.33H79C55,549,72.33,529,72.33,529L306,393l232.33,136
	C551,549,533,554.33,533,554.33z"/>
</svg>
